<?xml version="1.0" encoding="utf-8"?>
<!-- Generator: Adobe Illustrator 16.0.4, SVG Export Plug-In . SVG Version: 6.00 Build 0)  -->
<!DOCTYPE svg PUBLIC "-//W3C//DTD SVG 1.1//EN" "http://www.w3.org/Graphics/SVG/1.1/DTD/svg11.dtd">
<svg version="1.1" id="Layer_1" xmlns="http://www.w3.org/2000/svg" xmlns:xlink="http://www.w3.org/1999/xlink" x="0px" y="0px"
	 width="81.504px" height="32.34px" viewBox="0 0 81.504 32.34" enable-background="new 0 0 81.504 32.34" xml:space="preserve">
<g>
	<path fill="#FFFFFF" d="M28.282,2.514c-1.137,0-2.057,0.92-2.057,2.057v25.478c0,1.136,0.92,2.056,2.057,2.056
		c1.136,0,2.057-0.92,2.057-2.056V4.57C30.339,3.434,29.418,2.514,28.282,2.514z"/>
	<path fill="#FFFFFF" d="M35.364,7.427c-1.135,0-2.056,0.921-2.056,2.058v20.563c0,1.136,0.921,2.056,2.056,2.056
		c1.138,0,2.057-0.92,2.057-2.056V9.484C37.421,8.348,36.502,7.427,35.364,7.427z"/>
	<path fill="#FFFFFF" d="M49.418,7.311c-1.849,0-3.564,0.564-4.987,1.525c-0.238-0.939-1.082-1.639-2.098-1.639
		c-1.197,0-2.169,0.971-2.169,2.172V30.17c0,1.198,0.972,2.17,2.169,2.17c1.2,0,2.171-0.972,2.171-2.17V15.195
		c0.473-2.157,2.388-3.771,4.685-3.771c2.649,0,4.799,2.148,4.799,4.8h0.012c-0.002,0.039-0.012,0.074-0.012,0.113V30.17
		c0,1.198,0.972,2.17,2.17,2.17c1.199,0,2.17-0.972,2.17-2.17V16.338c0-0.039-0.01-0.074-0.012-0.113h0.012
		C58.327,11.301,54.339,7.311,49.418,7.311z"/>
	<path fill="#FFFFFF" d="M77.964,25.563l-0.169,0.157c-1.485,1.51-3.551,2.445-5.833,2.445c-4.521,0-8.183-3.664-8.183-8.184
		c0-4.518,3.662-8.183,8.183-8.183c2.282,0,4.348,0.935,5.833,2.444l0.169,0.158c0.787,0.82,2.089,0.848,2.908,0.061
		s0.846-2.089,0.059-2.907l0.01,0.022c-2.226-2.35-5.376-3.813-8.868-3.813c-0.211,0-0.42,0.005-0.628,0.017
		c-6.456,0.326-11.589,5.663-11.589,12.201c0,6.749,5.47,12.219,12.217,12.219c3.492,0,6.643-1.464,8.868-3.812l-0.01,0.021
		c0.787-0.818,0.761-2.119-0.059-2.906C80.053,24.716,78.751,24.744,77.964,25.563z"/>
	<path fill="#FFFFFF" d="M4.114,10.855V2.057C4.114,0.922,3.192,0,2.057,0C0.92,0,0,0.922,0,2.057v17.879
		c0,0.125,0.016,0.244,0.036,0.361v0.004c0.174,0.961,1.01,1.693,2.021,1.693c1.133,0,2.048-0.916,2.054-2.045l0.004-0.011
		l0.014-0.231c0.053-2.118,0.922-4.212,2.589-5.773c3.298-3.088,8.477-2.916,11.566,0.383c3.088,3.299,2.918,8.478-0.383,11.566
		c-3.3,3.089-8.479,2.917-11.564-0.381l-0.264-0.29c-0.774-0.829-2.075-0.87-2.905-0.095s-0.872,2.076-0.097,2.906l0.236,0.312
		c4.611,4.928,12.343,5.182,17.271,0.568c4.926-4.611,5.183-12.342,0.569-17.27C16.607,6.785,9.049,6.468,4.114,10.855z"/>
</g>
</svg>
